<svg width="25" height="24" viewBox="0 0 25 24" fill="none" xmlns="http://www.w3.org/2000/svg">
<path d="M2.25 2.99995C2.15062 2.99855 2.05194 3.01691 1.95972 3.05397C1.86749 3.09103 1.78355 3.14605 1.71277 3.21583C1.642 3.28562 1.58579 3.36877 1.54743 3.46046C1.50907 3.55216 1.48932 3.65056 1.48932 3.74995C1.48932 3.84935 1.50907 3.94775 1.54743 4.03944C1.58579 4.13114 1.642 4.21429 1.71277 4.28407C1.78355 4.35386 1.86749 4.40888 1.95972 4.44594C2.05194 4.483 2.15062 4.50136 2.25 4.49995H3.62793C3.9919 4.49995 4.29529 4.75142 4.36426 5.10933L4.51172 5.88277C4.51213 5.88505 4.51226 5.88732 4.5127 5.8896L6.12598 14.3584C6.41748 15.8894 7.76084 17 9.31934 17H18.6816C20.2401 17 21.582 15.8894 21.874 14.3584L23.4873 5.8896C23.5283 5.6706 23.4701 5.44394 23.3281 5.27144C23.1856 5.09944 22.9735 4.99995 22.75 4.99995H5.87012L5.83789 4.82905C5.63633 3.77272 4.70349 2.99995 3.62793 2.99995H2.25ZM13.75 7.99995C14.1645 7.99995 14.5 8.33545 14.5 8.74995V9.99995H15.75C16.1645 9.99995 16.5 10.3355 16.5 10.75C16.5 11.1645 16.1645 11.5 15.75 11.5H14.5V12.75C14.5 13.1645 14.1645 13.5 13.75 13.5C13.3355 13.5 13 13.1645 13 12.75V11.5H11.75C11.3355 11.5 11 11.1645 11 10.75C11 10.3355 11.3355 9.99995 11.75 9.99995H13V8.74995C13 8.33545 13.3355 7.99995 13.75 7.99995ZM10.5 18C10.1022 18 9.72064 18.158 9.43934 18.4393C9.15804 18.7206 9 19.1021 9 19.5C9 19.8978 9.15804 20.2793 9.43934 20.5606C9.72064 20.8419 10.1022 21 10.5 21C10.8978 21 11.2794 20.8419 11.5607 20.5606C11.842 20.2793 12 19.8978 12 19.5C12 19.1021 11.842 18.7206 11.5607 18.4393C11.2794 18.158 10.8978 18 10.5 18ZM17.5 18C17.1022 18 16.7206 18.158 16.4393 18.4393C16.158 18.7206 16 19.1021 16 19.5C16 19.8978 16.158 20.2793 16.4393 20.5606C16.7206 20.8419 17.1022 21 17.5 21C17.8978 21 18.2794 20.8419 18.5607 20.5606C18.842 20.2793 19 19.8978 19 19.5C19 19.1021 18.842 18.7206 18.5607 18.4393C18.2794 18.158 17.8978 18 17.5 18Z" fill="#F3EFF5"/>
</svg>
