<svg width="37" height="32" viewBox="0 0 37 32" fill="none" xmlns="http://www.w3.org/2000/svg">
<path d="M26.667 1.66699C28.8958 1.66708 30.9831 2.53129 32.5586 4.10742L32.5596 4.1084C34.1356 5.68391 35 7.77123 35 10C35 12.2288 34.1356 14.3161 32.5596 15.8916L32.5586 15.8926C30.8751 17.5765 27.2773 21.1027 24.0791 24.2285C22.4818 25.7897 20.9866 27.2489 19.8838 28.3242C19.3325 28.8618 18.8794 29.3036 18.5605 29.6143C18.4749 29.6977 18.3985 29.7711 18.333 29.835C16.5527 28.1002 7.17367 18.9588 4.10742 15.8926V15.8916L3.82031 15.5908C2.4265 14.0551 1.66699 12.0897 1.66699 10C1.66699 7.77158 2.53211 5.68441 4.1084 4.10742C5.68393 2.53131 7.77116 1.66699 10 1.66699C12.2288 1.66699 14.3161 2.53131 15.8916 4.10742L15.8936 4.1084C16.2642 4.47836 16.6209 4.94549 16.9424 5.43262L18.333 7.54102L19.7246 5.43262C20.0461 4.94554 20.4029 4.47832 20.7734 4.1084L20.7744 4.10742C22.35 2.53117 24.438 1.66699 26.667 1.66699Z" fill="#F651C4" stroke="#2F38E2" stroke-width="3.33333"/>
</svg>
