<svg width="40" height="40" viewBox="0 0 40 40" fill="none" xmlns="http://www.w3.org/2000/svg">
<path d="M28.3337 5.83374C30.5625 5.83382 32.6499 6.69803 34.2253 8.27417L34.2263 8.27515C35.8023 9.85066 36.6667 11.938 36.6667 14.1667C36.6667 16.3955 35.8023 18.4828 34.2263 20.0583L34.2253 20.0593C32.5419 21.7432 28.9441 25.2695 25.7458 28.3953C24.1485 29.9564 22.6533 31.4156 21.5505 32.491C20.9992 33.0286 20.5461 33.4704 20.2273 33.781C20.1417 33.8644 20.0653 33.9379 19.9998 34.0017C18.2195 32.267 8.84042 23.1256 5.77417 20.0593V20.0583L5.48706 19.7576C4.09325 18.2218 3.33374 16.2564 3.33374 14.1667C3.33374 11.9383 4.19885 9.85116 5.77515 8.27417C7.35068 6.69806 9.4379 5.83374 11.6667 5.83374C13.8956 5.83374 15.9828 6.69806 17.5583 8.27417L17.5603 8.27515C17.9309 8.64511 18.2876 9.11224 18.6091 9.59937L19.9998 11.7078L21.3914 9.59937C21.7129 9.11229 22.0696 8.64507 22.4402 8.27515L22.4412 8.27417C24.0167 6.69792 26.1048 5.83374 28.3337 5.83374Z" stroke="#2F38E2" stroke-width="3.33333"/>
</svg>
