<svg width="24" height="24" viewBox="0 0 24 24" fill="none" xmlns="http://www.w3.org/2000/svg">
<path d="M10.1924 2.98145C6.20016 2.98145 2.94238 6.23923 2.94238 10.2314C2.94238 14.2237 6.20016 17.4814 10.1924 17.4814C11.8292 17.4814 13.3368 16.9272 14.5527 16.0059L19.2354 20.6885C19.3283 20.7813 19.4386 20.855 19.5599 20.9053C19.6813 20.9555 19.8114 20.9813 19.9428 20.9813C20.0741 20.9813 20.2042 20.9554 20.3256 20.9051C20.4469 20.8547 20.5572 20.781 20.65 20.6881C20.7429 20.5952 20.8165 20.4849 20.8667 20.3635C20.917 20.2421 20.9428 20.112 20.9427 19.9806C20.9427 19.8493 20.9167 19.7192 20.8664 19.5979C20.8161 19.4765 20.7424 19.3663 20.6494 19.2734L15.9668 14.5918C16.8881 13.3758 17.4424 11.8682 17.4424 10.2314C17.4424 6.23923 14.1846 2.98145 10.1924 2.98145ZM10.1924 4.98145C13.1037 4.98145 15.4424 7.3201 15.4424 10.2314C15.4424 11.628 14.9 12.8891 14.0186 13.8271C13.9304 13.8907 13.8532 13.9682 13.79 14.0566C12.8518 14.9389 11.5897 15.4814 10.1924 15.4814C7.28104 15.4814 4.94238 13.1428 4.94238 10.2314C4.94238 7.3201 7.28104 4.98145 10.1924 4.98145Z" fill="#2F38E2"/>
</svg>
