<svg width="136" height="32" viewBox="0 0 136 32" fill="none" xmlns="http://www.w3.org/2000/svg">
<path d="M24.8159 14.88C27.6479 15.888 30.2399 18.192 30.2399 21.84C30.2399 28.464 24.8639 30.816 18.1919 30.816H10.7039H-5.65648e-05C0.719943 21.408 0.767943 11.952 0.143943 2.54404L-5.65648e-05 0.38404H16.5119C26.5919 0.38404 28.0319 4.46404 28.0319 9.36004C28.0319 11.808 26.4959 13.248 24.7199 14.112C24.3839 14.256 24.4319 14.784 24.8159 14.88ZM14.9759 23.136V18.864C14.9759 18.48 14.6879 18.192 14.3039 18.192C13.9199 18.192 13.6319 18.48 13.6319 18.864V23.136C13.6319 23.472 13.9199 23.808 14.3039 23.808C14.6879 23.808 14.9759 23.472 14.9759 23.136ZM14.9759 12.336V8.06404C14.9759 7.68004 14.6879 7.39204 14.3039 7.39204C13.9199 7.39204 13.6319 7.68004 13.6319 8.06404V12.336C13.6319 12.672 13.9199 13.008 14.3039 13.008C14.6879 13.008 14.9759 12.672 14.9759 12.336ZM29.5788 0.38404H43.4988V9.93604L43.5468 19.056H51.1308V30.816H29.5788C29.8668 31.152 30.7308 10.224 29.5788 0.38404ZM79.6274 4.56004C81.6914 7.39204 82.2194 11.28 82.2194 15.6C82.2194 28.896 76.4114 31.2 68.3954 31.2H63.6914C59.7074 31.2 56.2514 30.624 53.8034 28.368C51.3554 26.16 49.9154 22.224 49.9154 15.6C49.9154 7.00804 51.7394 3.91006e-05 63.6914 3.91006e-05H68.1074C74.1074 3.91006e-05 77.6114 1.77604 79.6274 4.56004ZM66.7154 20.208V11.04C66.7154 10.656 66.4274 10.368 66.0434 10.368C65.6594 10.368 65.3714 10.656 65.3714 11.04V20.208C65.3714 20.544 65.6594 20.832 66.0434 20.832C66.4274 20.832 66.7154 20.544 66.7154 20.208ZM103.543 4.56004C105.607 7.39204 106.135 11.28 106.135 15.6C106.135 28.896 100.327 31.2 92.3111 31.2H87.6071C83.6231 31.2 80.1671 30.624 77.7191 28.368C75.2711 26.16 73.8311 22.224 73.8311 15.6C73.8311 7.00804 75.6551 3.91006e-05 87.6071 3.91006e-05H92.0231C98.0231 3.91006e-05 101.527 1.77604 103.543 4.56004ZM90.6311 20.208V11.04C90.6311 10.656 90.3431 10.368 89.9591 10.368C89.5751 10.368 89.2871 10.656 89.2871 11.04V20.208C89.2871 20.544 89.5751 20.832 89.9591 20.832C90.3431 20.832 90.6311 20.544 90.6311 20.208ZM124.099 0.38404C134.179 0.38404 135.667 5.04004 135.667 10.848C135.667 19.776 130.867 21.6 124.099 21.6H119.011V30.816H105.859C106.579 21.408 106.627 11.952 106.003 2.54404L105.859 0.38404H124.099ZM123.283 12.192V8.59204C123.283 8.20804 122.995 7.92004 122.611 7.92004C122.227 7.92004 121.939 8.20804 121.939 8.59204V12.192C121.939 12.576 122.227 12.864 122.611 12.864C122.995 12.864 123.283 12.576 123.283 12.192Z" fill="#F3EFF5"/>
</svg>
