<svg width="136" height="32" viewBox="0 0 136 32" fill="none" xmlns="http://www.w3.org/2000/svg">
<path d="M24.8159 14.8799C27.6479 15.8879 30.2399 18.1919 30.2399 21.8399C30.2399 28.4639 24.8639 30.8159 18.1919 30.8159H10.7039H-5.65648e-05C0.719943 21.4079 0.767943 11.9519 0.143943 2.54392L-5.65648e-05 0.383918H16.5119C26.5919 0.383918 28.0319 4.46392 28.0319 9.35992C28.0319 11.8079 26.4959 13.2479 24.7199 14.1119C24.3839 14.2559 24.4319 14.7839 24.8159 14.8799ZM14.9759 23.1359V18.8639C14.9759 18.4799 14.6879 18.1919 14.3039 18.1919C13.9199 18.1919 13.6319 18.4799 13.6319 18.8639V23.1359C13.6319 23.4719 13.9199 23.8079 14.3039 23.8079C14.6879 23.8079 14.9759 23.4719 14.9759 23.1359ZM14.9759 12.3359V8.06392C14.9759 7.67992 14.6879 7.39192 14.3039 7.39192C13.9199 7.39192 13.6319 7.67992 13.6319 8.06392V12.3359C13.6319 12.6719 13.9199 13.0079 14.3039 13.0079C14.6879 13.0079 14.9759 12.6719 14.9759 12.3359ZM29.5788 0.383918H43.4988V9.93592L43.5468 19.0559H51.1308V30.8159H29.5788C29.8668 31.1519 30.7308 10.2239 29.5788 0.383918ZM79.6274 4.55992C81.6914 7.39192 82.2194 11.2799 82.2194 15.5999C82.2194 28.8959 76.4114 31.1999 68.3954 31.1999H63.6914C59.7074 31.1999 56.2514 30.6239 53.8034 28.3679C51.3554 26.1599 49.9154 22.2239 49.9154 15.5999C49.9154 7.00792 51.7394 -8.29697e-05 63.6914 -8.29697e-05H68.1074C74.1074 -8.29697e-05 77.6114 1.77592 79.6274 4.55992ZM66.7154 20.2079V11.0399C66.7154 10.6559 66.4274 10.3679 66.0434 10.3679C65.6594 10.3679 65.3714 10.6559 65.3714 11.0399V20.2079C65.3714 20.5439 65.6594 20.8319 66.0434 20.8319C66.4274 20.8319 66.7154 20.5439 66.7154 20.2079ZM103.543 4.55992C105.607 7.39192 106.135 11.2799 106.135 15.5999C106.135 28.8959 100.327 31.1999 92.3111 31.1999H87.6071C83.6231 31.1999 80.1671 30.6239 77.7191 28.3679C75.2711 26.1599 73.8311 22.2239 73.8311 15.5999C73.8311 7.00792 75.6551 -8.29697e-05 87.6071 -8.29697e-05H92.0231C98.0231 -8.29697e-05 101.527 1.77592 103.543 4.55992ZM90.6311 20.2079V11.0399C90.6311 10.6559 90.3431 10.3679 89.9591 10.3679C89.5751 10.3679 89.2871 10.6559 89.2871 11.0399V20.2079C89.2871 20.5439 89.5751 20.8319 89.9591 20.8319C90.3431 20.8319 90.6311 20.5439 90.6311 20.2079ZM124.099 0.383918C134.179 0.383918 135.667 5.03992 135.667 10.8479C135.667 19.7759 130.867 21.5999 124.099 21.5999H119.011V30.8159H105.859C106.579 21.4079 106.627 11.9519 106.003 2.54392L105.859 0.383918H124.099ZM123.283 12.1919V8.59192C123.283 8.20792 122.995 7.91992 122.611 7.91992C122.227 7.91992 121.939 8.20792 121.939 8.59192V12.1919C121.939 12.5759 122.227 12.8639 122.611 12.8639C122.995 12.8639 123.283 12.5759 123.283 12.1919Z" fill="#2F38E2"/>
</svg>
