<svg width="24" height="24" viewBox="0 0 24 24" fill="none" xmlns="http://www.w3.org/2000/svg">
<path d="M1.74994 3C1.65056 2.99859 1.55188 3.01695 1.45966 3.05401C1.36743 3.09107 1.28349 3.1461 1.21271 3.21588C1.14194 3.28566 1.08573 3.36882 1.04737 3.46051C1.00901 3.5522 0.989258 3.6506 0.989258 3.75C0.989258 3.84939 1.00901 3.9478 1.04737 4.03949C1.08573 4.13118 1.14194 4.21434 1.21271 4.28412C1.28349 4.3539 1.36743 4.40892 1.45966 4.44598C1.55188 4.48304 1.65056 4.5014 1.74994 4.5H3.12787C3.49184 4.5 3.79523 4.75146 3.8642 5.10937L4.01166 5.88281C4.01207 5.8851 4.0122 5.88736 4.01263 5.88965L5.62592 14.3584C5.91742 15.8894 7.26078 17 8.81928 17H18.1816C19.7401 17 21.082 15.8894 21.374 14.3584L22.9872 5.88965C23.0282 5.67065 22.9701 5.44398 22.8281 5.27148C22.6856 5.09948 22.4734 5 22.2499 5H5.37006L5.33783 4.8291C5.13627 3.77276 4.20342 3 3.12787 3H1.74994ZM13.2499 8C13.6644 8 13.9999 8.3355 13.9999 8.75V10H15.2499C15.6644 10 15.9999 10.3355 15.9999 10.75C15.9999 11.1645 15.6644 11.5 15.2499 11.5H13.9999V12.75C13.9999 13.1645 13.6644 13.5 13.2499 13.5C12.8354 13.5 12.4999 13.1645 12.4999 12.75V11.5H11.2499C10.8354 11.5 10.4999 11.1645 10.4999 10.75C10.4999 10.3355 10.8354 10 11.2499 10H12.4999V8.75C12.4999 8.3355 12.8354 8 13.2499 8ZM9.99994 18C9.60212 18 9.22058 18.158 8.93928 18.4393C8.65798 18.7206 8.49994 19.1022 8.49994 19.5C8.49994 19.8978 8.65798 20.2794 8.93928 20.5607C9.22058 20.842 9.60212 21 9.99994 21C10.3978 21 10.7793 20.842 11.0606 20.5607C11.3419 20.2794 11.4999 19.8978 11.4999 19.5C11.4999 19.1022 11.3419 18.7206 11.0606 18.4393C10.7793 18.158 10.3978 18 9.99994 18ZM16.9999 18C16.6021 18 16.2206 18.158 15.9393 18.4393C15.658 18.7206 15.4999 19.1022 15.4999 19.5C15.4999 19.8978 15.658 20.2794 15.9393 20.5607C16.2206 20.842 16.6021 21 16.9999 21C17.3978 21 17.7793 20.842 18.0606 20.5607C18.3419 20.2794 18.4999 19.8978 18.4999 19.5C18.4999 19.1022 18.3419 18.7206 18.0606 18.4393C17.7793 18.158 17.3978 18 16.9999 18Z" fill="#2F38E2"/>
</svg>
