<svg width="24" height="24" viewBox="0 0 24 24" fill="none" xmlns="http://www.w3.org/2000/svg">
<path d="M1.74994 3.00008C1.65056 2.99867 1.55188 3.01703 1.45966 3.05409C1.36743 3.09115 1.28349 3.14617 1.21271 3.21595C1.14194 3.28574 1.08573 3.36889 1.04737 3.46059C1.00901 3.55228 0.989258 3.65068 0.989258 3.75007C0.989258 3.84947 1.00901 3.94787 1.04737 4.03956C1.08573 4.13126 1.14194 4.21441 1.21271 4.2842C1.28349 4.35398 1.36743 4.409 1.45966 4.44606C1.55188 4.48312 1.65056 4.50148 1.74994 4.50007H3.12787C3.49184 4.50007 3.79523 4.75154 3.8642 5.10945L4.01166 5.88289C4.01207 5.88517 4.0122 5.88744 4.01263 5.88972L5.62592 14.3585C5.91742 15.8895 7.26078 17.0001 8.81928 17.0001H18.1816C19.7401 17.0001 21.082 15.8895 21.374 14.3585L22.9872 5.88972C23.0282 5.67072 22.9701 5.44406 22.8281 5.27156C22.6856 5.09956 22.4734 5.00008 22.2499 5.00008H5.37006L5.33783 4.82918C5.13627 3.77284 4.20342 3.00008 3.12787 3.00008H1.74994ZM13.2499 8.00007C13.6644 8.00007 13.9999 8.33558 13.9999 8.75007V10.0001H15.2499C15.6644 10.0001 15.9999 10.3356 15.9999 10.7501C15.9999 11.1646 15.6644 11.5001 15.2499 11.5001H13.9999V12.7501C13.9999 13.1646 13.6644 13.5001 13.2499 13.5001C12.8354 13.5001 12.4999 13.1646 12.4999 12.7501V11.5001H11.2499C10.8354 11.5001 10.4999 11.1646 10.4999 10.7501C10.4999 10.3356 10.8354 10.0001 11.2499 10.0001H12.4999V8.75007C12.4999 8.33558 12.8354 8.00007 13.2499 8.00007ZM9.99994 18.0001C9.60212 18.0001 9.22058 18.1581 8.93928 18.4394C8.65798 18.7207 8.49994 19.1022 8.49994 19.5001C8.49994 19.8979 8.65798 20.2794 8.93928 20.5607C9.22058 20.842 9.60212 21.0001 9.99994 21.0001C10.3978 21.0001 10.7793 20.842 11.0606 20.5607C11.3419 20.2794 11.4999 19.8979 11.4999 19.5001C11.4999 19.1022 11.3419 18.7207 11.0606 18.4394C10.7793 18.1581 10.3978 18.0001 9.99994 18.0001ZM16.9999 18.0001C16.6021 18.0001 16.2206 18.1581 15.9393 18.4394C15.658 18.7207 15.4999 19.1022 15.4999 19.5001C15.4999 19.8979 15.658 20.2794 15.9393 20.5607C16.2206 20.842 16.6021 21.0001 16.9999 21.0001C17.3978 21.0001 17.7793 20.842 18.0606 20.5607C18.3419 20.2794 18.4999 19.8979 18.4999 19.5001C18.4999 19.1022 18.3419 18.7207 18.0606 18.4394C17.7793 18.1581 17.3978 18.0001 16.9999 18.0001Z" fill="#F3EFF5"/>
</svg>
