<svg width="24" height="24" viewBox="0 0 24 24" fill="none" xmlns="http://www.w3.org/2000/svg">
<path d="M12 5C18.4783 5 21.6965 11.0383 21.8303 11.2945C22.0566 11.7313 22.0566 12.2687 21.8303 12.7055C21.6965 12.9631 18.4783 19 12 19C5.52172 19 2.30347 12.9617 2.16971 12.7055C1.94343 12.2687 1.94343 11.7313 2.16971 11.2945C2.30347 11.0383 5.52172 5 12 5Z" fill="#F3EFF5"/>
<path d="M12 8C9.79067 8 8 9.79067 8 12C8 14.2093 9.79067 16 12 16C14.2093 16 16 14.2093 16 12C16 9.79067 14.2093 8 12 8Z" fill="#2F38E2"/>
</svg>
