<svg width="24" height="24" viewBox="0 0 24 24" fill="none" xmlns="http://www.w3.org/2000/svg">
<path d="M17 3.5C18.3374 3.5 19.5898 4.01909 20.5352 4.96484C21.4809 5.91018 22 7.16263 22 8.5C22 9.83737 21.4809 11.0898 20.5352 12.0352C19.5251 13.0454 17.3663 15.1616 15.4473 17.0371C14.489 17.9736 13.5923 18.849 12.9307 19.4941C12.5998 19.8168 12.3271 20.0822 12.1357 20.2686C12.0844 20.3185 12.0383 20.3621 11.999 20.4004C11.2236 19.6448 8.0555 16.5567 5.66992 14.2139L3.46484 12.0352L3.29199 11.8545C2.45576 10.9331 2 9.75376 2 8.5C2 7.16302 2.51917 5.91102 3.46484 4.96484C4.41018 4.01909 5.66263 3.5 7 3.5C8.33737 3.5 9.58982 4.01909 10.5352 4.96484H10.5361C10.7585 5.18681 10.9721 5.4675 11.165 5.75977L12 7.02441L12.835 5.75977C13.0279 5.4675 13.2415 5.18681 13.4639 4.96484H13.4648C14.4102 4.01909 15.6626 3.5 17 3.5Z" fill="#F651C4" stroke="#2F38E2" stroke-width="2"/>
</svg>
